Coordinates
version=1
nRows=8
nColumns=40
inDegrees=yes

Units are S.I. units (second, meters, Newtons, ...)
Angles are in degrees.

endheader
time	pelvis_tilt	pelvis_list	pelvis_rotation	pelvis_tx	pelvis_ty	pelvis_tz	hip_flexion_r	hip_adduction_r	hip_rotation_r	knee_angle_r	knee_angle_r_beta	ankle_angle_r	subtalar_angle_r	mtp_angle_r	hip_flexion_l	hip_adduction_l	hip_rotation_l	knee_angle_l	knee_angle_l_beta	ankle_angle_l	subtalar_angle_l	mtp_angle_l	lumbar_extension	lumbar_bending	lumbar_rotation	arm_flex_r	arm_add_r	arm_rot_r	elbow_flex_r	pro_sup_r	wrist_flex_r	wrist_dev_r	arm_flex_l	arm_add_l	arm_rot_l	elbow_flex_l	pro_sup_l	wrist_flex_l	wrist_dev_l
     46.41328571	     -1.92546076	     -1.99946626	     -3.05118093	      1.05151619	      0.93220871	      0.41972855	     20.88024630	     -4.59936383	    -12.07419806	     13.45136607	     13.45136607	      2.69185215	      7.07846157	      4.98179151	      0.84311997	     -2.95364333	    -14.48047324	     12.35186964	     12.35186964	     15.08980148	     -2.21663794	     -6.66474679	     -9.17216947	      3.07351003	      1.11575728	    -14.15404733	    -12.48097575	     -4.89906703	     26.85574346	     46.69568774	      0.00000000	      0.00000000	     24.28873478	    -20.22444180	    -11.27501543	     65.92501727	     47.20611944	      0.00000000	      0.00000000
     46.42657143	     -1.81095704	     -1.93628903	     -3.15122283	      1.05239295	      0.93143326	      0.42249842	     20.68289669	     -4.47789364	    -11.97059499	     14.34461032	     14.34461032	      2.76268874	      6.60006024	      3.97007296	      0.10477182	     -2.99429354	    -14.59594821	     12.06485574	     12.06485574	     15.29246466	     -2.17426352	     -6.89732974	     -9.12800105	      3.04090596	      1.06101995	    -13.87050005	    -12.32975598	     -4.92079799	     26.88324384	     46.69344026	      0.00000000	      0.00000000	     23.85550747	    -20.10668035	    -11.89878091	     65.90399648	     47.25127060	      0.00000000	      0.00000000
     46.43985714	     -1.71798393	     -2.05360177	     -3.19653096	      1.05341411	      0.93070086	      0.42538121	     20.36797247	     -4.17901561	    -11.89218114	     15.10267417	     15.10267417	      3.00494375	      6.29434695	      3.48807433	     -0.52998165	     -3.26013357	    -14.53746597	     11.95861214	     11.95861214	     15.67154607	     -2.22575627	     -6.97899397	     -9.04396898	      3.28128592	      1.18894858	    -13.56433989	    -12.08041912	     -4.88663776	     26.96195246	     46.68859149	      0.00000000	      0.00000000	     23.30395012	    -19.84410088	    -11.98772088	     65.70942668	     47.25105603	      0.00000000	      0.00000000
     46.45314286	     -1.55845139	     -1.91271536	     -3.25654555	      1.05448390	      0.92980148	      0.42834336	     20.24251031	     -4.06157219	    -10.95301177	     16.15223532	     16.15223532	      2.04724570	      4.27130108	     -1.13721313	     -1.30347762	     -3.21988393	    -14.58417546	     11.71513798	     11.71513798	     16.20799181	     -2.04988570	     -6.37287575	     -9.00874523	      3.15703694	      0.58881345	    -12.45259024	    -12.05683066	     -4.64288668	     26.27474754	     46.68499902	      0.00000000	      0.00000000	     22.37478987	    -19.54596493	    -14.45923228	     65.77658298	     47.43273537	      0.00000000	      0.00000000
     46.46642857	     -1.41291716	     -1.92455907	     -3.26248920	      1.05558950	      0.92897387	      0.43137192	     20.23536802	     -3.92009607	    -10.52031916	     17.52750515	     17.52750515	      2.59759170	      3.35695874	     -1.81848107	     -1.94520446	     -3.39527030	    -14.55949235	     11.69345584	     11.69345584	     16.65923882	     -2.01092732	     -6.15624558	     -8.98400178	      3.24810801	      0.59221474	    -11.86005856	    -11.93905306	     -4.57862535	     26.41812650	     46.67472273	      0.00000000	      0.00000000	     21.76923701	    -19.45095101	    -14.43662226	     65.35939290	     47.42047626	      0.00000000	      0.00000000
     46.47971429	     -1.20449683	     -2.05752026	     -3.21379416	      1.05673809	      0.92827515	      0.43450636	     20.13224374	     -3.64339092	    -10.10176612	     18.81943628	     18.81943628	      3.22064557	      2.37483090	     -2.37796623	     -2.55425019	     -3.73952434	    -14.43170007	     11.87162403	     11.87162403	     17.13350988	     -2.11478707	     -5.87226315	     -9.05698175	      3.48257391	      0.61899890	    -11.21572026	    -11.93845048	     -4.55236913	     26.58779599	     46.66880069	      0.00000000	      0.00000000	     21.14538833	    -19.28249181	    -14.47957692	     64.86101931	     47.41117429	      0.00000000	      0.00000000
     46.49300000	     -1.14178969	     -2.10235197	     -3.14040785	      1.05774017	      0.92744224	      0.43777263	     20.26230002	     -3.36502282	     -9.28903041	     20.11587184	     20.11587184	      3.80936571	      0.73313874	     -2.87407028	     -2.81881387	     -4.05376876	    -14.25946110	     12.38110168	     12.38110168	     17.79331391	     -2.27500424	     -5.05465466	     -8.93208558	      3.60670351	      0.43083304	    -10.29183155	    -11.78554097	     -4.49596597	     26.80504108	     46.65860362	      0.00000000	      0.00000000	     20.37559751	    -19.12269686	    -14.68103654	     63.99582713	     47.40674335	      0.00000000	      0.00000000
     46.50628571	     -1.00369518	     -2.31060117	     -3.00402361	      1.05879573	      0.92701470	      0.44116489	     20.08496003	     -2.87810599	     -8.63015470	     20.97244972	     20.97244972	      4.32607926	     -0.77841018	     -3.25094483	     -2.90345136	     -4.67682665	    -14.25863847	     13.52043353	     13.52043353	     19.49826496	     -1.81723095	     -1.90783213	     -8.91366104	      3.92572415	      0.33422061	     -9.18133771	    -11.72897688	     -4.28874323	     26.51959916	     46.64405539	      0.00000000	      0.00000000	     19.73936966	    -18.59803153	    -15.43369975	     62.79786898	     47.43587767	      0.00000000	      0.00000000
